<svg width="400" height="400" viewBox="0 0 400 400" fill="none" xmlns="http://www.w3.org/2000/svg">
<path d="M182.717 104.524C188.53 101.137 194.135 99 200.5 99C206.865 99 212.47 101.137 218.283 104.524C223.856 107.773 230.215 112.54 238.036 118.403L271.215 143.277C279.041 149.144 285.398 153.91 290.111 158.373C295.03 163.031 298.668 167.816 300.593 173.93C302.514 180.032 302.295 186.075 300.976 192.784C299.71 199.233 297.287 206.927 294.293 216.435L281.632 256.645C278.639 266.149 276.216 273.845 273.566 279.833C270.811 286.058 267.529 291.128 262.434 294.947C257.321 298.78 251.579 300.458 244.918 301.246C238.548 302 230.678 302 221.018 302H179.983C170.323 302 162.452 302 156.081 301.246C149.42 300.458 143.679 298.78 138.566 294.947C133.472 291.128 130.189 286.058 127.434 279.833C124.784 273.845 122.361 266.149 119.368 256.645L106.707 216.435C103.713 206.927 101.29 199.233 100.023 192.784C98.7059 186.075 98.486 180.032 100.407 173.93C102.332 167.816 105.97 163.031 110.89 158.373C115.602 153.91 121.959 149.144 129.785 143.277L162.964 118.403C170.785 112.54 177.143 107.773 182.717 104.524Z" fill="#D9D9D9"/>
</svg>
