<svg width="400" height="400" viewBox="0 0 400 400" fill="none" xmlns="http://www.w3.org/2000/svg">
<path d="M288.231 156.654C288.884 157.234 289.511 157.805 290.11 158.373C295.03 163.032 298.668 167.816 300.593 173.931C302.513 180.032 302.295 186.075 300.977 192.784C299.71 199.233 297.287 206.927 294.293 216.435L281.632 256.646C278.639 266.149 276.216 273.845 273.565 279.833C270.81 286.058 267.528 291.128 262.434 294.947C257.321 298.78 251.579 300.458 244.918 301.246C238.548 302 230.678 302 221.019 302H179.982C170.322 302 162.452 302 156.081 301.246C149.42 300.458 143.679 298.78 138.566 294.947C133.472 291.128 130.19 286.058 127.435 279.833C126.829 278.466 126.237 277.009 125.646 275.462C129.509 277.436 133.707 278.512 138.332 279.124C144.954 280 153.134 280 163.175 280H205.827C215.868 280 224.048 280 230.67 279.124C237.594 278.207 243.562 276.257 248.876 271.801C254.172 267.361 257.583 261.466 260.446 254.229C263.201 247.268 265.719 238.321 268.83 227.272L281.99 180.525C284.616 171.2 286.816 163.375 288.231 156.654Z" fill="black" fill-opacity="0.1"/>
</svg>
