<svg width="400" height="400" viewBox="0 0 400 400" fill="none" xmlns="http://www.w3.org/2000/svg">
<path d="M105.276 148C110.588 186.366 132.268 221.897 166.055 252H59.6113C54.3033 252 50 247.697 50 242.389V157.611C50 152.303 54.3033 148 59.6113 148H105.276Z" fill="black" fill-opacity="0.26"/>
<path d="M70 252H59.6113C56.3982 252 53.5546 250.422 51.8096 248H70V252ZM70 242H50V238H70V242ZM70 232H50V228H70V232ZM70 222H50V218H70V222ZM70 212H50V208H70V212ZM70 202H50V198H70V202ZM70 192H50V188H70V192ZM70 182H50V178H70V182ZM70 172H50V168H70V172ZM70 162H50V158H70V162ZM70 152H51.8096C53.5546 149.578 56.3982 148 59.6113 148H70V152Z" fill="black" fill-opacity="0.15"/>
<path d="M324.056 178C324.019 178.829 324 179.662 324 180.5C324 197.005 331.14 211.828 342.474 221.994C342.404 221.996 342.333 222 342.263 222H315V178H324.056Z" fill="black" fill-opacity="0.15"/>
<path d="M70 148H263V252H70V148Z" fill="black" fill-opacity="0.1"/>
<path d="M315 178H342.263C347.088 178 351 181.912 351 186.737V213.263C351 218.088 347.088 222 342.263 222H315V178Z" fill="black" fill-opacity="0.1"/>
</svg>
