<svg width="512" height="512" viewBox="0 0 512 512" fill="none" xmlns="http://www.w3.org/2000/svg">
<path d="M129.954 166.271L323.936 100.429L512 166.271V462.856C512 481.162 497.16 496.002 478.854 496.002H155.656L112.295 488.913L63.5869 324.348L84.7109 187.475L129.954 166.271Z" fill="#EEECFF"/>
<path d="M129.954 447.092V166.272L63.587 127.447L0 166.271V462.856C0 481.162 14.84 496.002 33.146 496.002H155.656C140.133 485.286 129.954 467.381 129.954 447.092Z" fill="#D3D3FF"/>
<path d="M105.113 301.469H59.0039C54.0109 301.469 49.9639 297.422 49.9639 292.429V246.32C49.9639 241.327 54.0109 237.28 59.0039 237.28H105.113C110.106 237.28 114.153 241.327 114.153 246.32V292.429C114.153 297.422 110.106 301.469 105.113 301.469Z" fill="#8E93E6"/>
<path d="M221.074 301.469H174.965C169.972 301.469 165.925 297.422 165.925 292.429V246.32C165.925 241.327 169.972 237.28 174.965 237.28H221.074C226.067 237.28 230.114 241.327 230.114 246.32V292.429C230.114 297.422 226.067 301.469 221.074 301.469Z" fill="#B7BAF0"/>
<path d="M337.035 301.469H290.926C285.933 301.469 281.886 297.422 281.886 292.429V246.32C281.886 241.327 285.933 237.28 290.926 237.28H337.035C342.028 237.28 346.075 241.327 346.075 246.32V292.429C346.075 297.422 342.028 301.469 337.035 301.469Z" fill="#B7BAF0"/>
<path d="M452.996 301.469H406.887C401.894 301.469 397.847 297.422 397.847 292.429V246.32C397.847 241.327 401.894 237.28 406.887 237.28H452.996C457.989 237.28 462.036 241.327 462.036 246.32V292.429C462.036 297.422 457.989 301.469 452.996 301.469Z" fill="#B7BAF0"/>
<path d="M105.113 424.993H59.0039C54.0109 424.993 49.9639 420.946 49.9639 415.953V369.844C49.9639 364.851 54.0109 360.804 59.0039 360.804H105.113C110.106 360.804 114.153 364.851 114.153 369.844V415.953C114.153 420.946 110.106 424.993 105.113 424.993Z" fill="#8E93E6"/>
<path d="M221.074 424.993H174.965C169.972 424.993 165.925 420.946 165.925 415.953V369.844C165.925 364.851 169.972 360.804 174.965 360.804H221.074C226.067 360.804 230.114 364.851 230.114 369.844V415.953C230.114 420.946 226.067 424.993 221.074 424.993Z" fill="#B7BAF0"/>
<path d="M337.035 424.993H290.926C285.933 424.993 281.886 420.946 281.886 415.953V369.844C281.886 364.851 285.933 360.804 290.926 360.804H337.035C342.028 360.804 346.075 364.851 346.075 369.844V415.953C346.075 420.946 342.028 424.993 337.035 424.993Z" fill="#B7BAF0"/>
<path d="M452.996 424.993H406.887C401.894 424.993 397.847 420.946 397.847 415.953V369.844C397.847 364.851 401.894 360.804 406.887 360.804H452.996C457.989 360.804 462.036 364.851 462.036 369.844V415.953C462.036 420.946 457.989 424.993 452.996 424.993Z" fill="#B7BAF0"/>
<path d="M129.954 166.271H512V90.757C512 72.451 497.16 57.611 478.854 57.611H155.992L121.34 62.815L107.207 150.231L129.954 166.271Z" fill="#A3E6FF"/>
<path d="M129.954 106.761C129.954 86.324 140.277 68.3 155.991 57.612H33.146C14.84 57.611 0 72.451 0 90.758V166.272H129.954V106.761Z" fill="#59D5FF"/>
<path d="M85.519 115.261H83.903C69.115 115.261 57.127 103.273 57.127 88.485V42.774C57.127 27.986 69.115 15.998 83.903 15.998H85.519C100.307 15.998 112.295 27.986 112.295 42.774V88.485C112.295 103.273 100.307 115.261 85.519 115.261Z" fill="#2A4F95"/>
<path d="M256.808 115.261H255.192C240.404 115.261 228.416 103.273 228.416 88.485V42.774C228.416 27.986 240.404 15.998 255.192 15.998H256.808C271.596 15.998 283.584 27.986 283.584 42.774V88.485C283.584 103.273 271.596 115.261 256.808 115.261Z" fill="#2A4F95"/>
<path d="M428.097 115.261H426.481C411.693 115.261 399.705 103.273 399.705 88.485V42.774C399.705 27.986 411.693 15.998 426.481 15.998H428.097C442.885 15.998 454.873 27.986 454.873 42.774V88.485C454.873 103.273 442.885 115.261 428.097 115.261Z" fill="#2A4F95"/>
</svg>
