<svg width="400" height="400" viewBox="0 0 400 400" fill="none" xmlns="http://www.w3.org/2000/svg">
<path d="M300.376 190.181C301.449 193.51 302.001 196.991 302.001 200.5C302.001 204.919 301.13 209.294 299.438 213.376C297.747 217.458 295.268 221.167 292.143 224.291L224.292 292.142C221.168 295.267 217.459 297.746 213.377 299.438C209.295 301.129 204.92 302 200.501 302C196.082 302 191.707 301.129 187.625 299.438C183.543 297.746 179.834 295.267 176.71 292.142L163.957 279.389C164.813 279.695 165.678 279.982 166.554 280.248C173.073 282.228 179.985 283.043 186.896 282.646C193.806 282.25 200.58 280.65 206.829 277.938C213.079 275.225 218.682 271.454 223.318 266.839L300.376 190.181Z" fill="black" fill-opacity="0.16"/>
</svg>
