<svg width="24" height="24" viewBox="0 0 24 24" fill="none" xmlns="http://www.w3.org/2000/svg">
<mask id="mask0_54_2720" style="mask-type:alpha" maskUnits="userSpaceOnUse" x="0" y="0" width="24" height="24">
<rect width="24" height="24" fill="#D9D9D9"/>
</mask>
<g mask="url(#mask0_54_2720)">
<path d="M1.31299 16.4078V7.59283C1.31299 7.1985 1.44599 6.87908 1.71199 6.63458C1.97782 6.38991 2.28649 6.26758 2.63799 6.26758C2.75899 6.26758 2.88366 6.28299 3.01199 6.31383C3.14016 6.34466 3.26007 6.39816 3.37174 6.47433L9.99574 10.9068C10.1927 11.0352 10.3405 11.196 10.439 11.3893C10.5377 11.5828 10.587 11.7865 10.587 12.0003C10.587 12.2142 10.5377 12.4178 10.439 12.6113C10.3405 12.8047 10.1927 12.9655 9.99574 13.0938L3.37174 17.5263C3.26007 17.6025 3.14016 17.656 3.01199 17.6868C2.88366 17.7177 2.75899 17.7331 2.63799 17.7331C2.28649 17.7331 1.97782 17.6107 1.71199 17.3661C1.44599 17.1216 1.31299 16.8022 1.31299 16.4078ZM12.3445 16.4078V7.59283C12.3445 7.1985 12.4775 6.87908 12.7435 6.63458C13.0095 6.38991 13.3182 6.26758 13.6695 6.26758C13.7905 6.26758 13.9152 6.28299 14.0435 6.31383C14.1718 6.34466 14.2917 6.39816 14.4032 6.47433L21.0272 10.9068C21.2242 11.0352 21.3721 11.196 21.4707 11.3893C21.5692 11.5828 21.6185 11.7865 21.6185 12.0003C21.6185 12.2142 21.5692 12.4178 21.4707 12.6113C21.3721 12.8047 21.2242 12.9655 21.0272 13.0938L14.4032 17.5263C14.2917 17.6025 14.1718 17.656 14.0435 17.6868C13.9152 17.7177 13.7905 17.7331 13.6695 17.7331C13.3182 17.7331 13.0095 17.6107 12.7435 17.3661C12.4775 17.1216 12.3445 16.8022 12.3445 16.4078Z" fill="#1C1B1F"/>
</g>
</svg>
