<svg width="400" height="400" viewBox="0 0 400 400" fill="none" xmlns="http://www.w3.org/2000/svg">
<path d="M182.243 71C178.71 82.5684 176.733 95.4829 176.733 109.106C176.733 123.356 178.894 136.83 182.738 148.799C171.079 173.861 164 206.84 164 242.97C164 278.281 170.763 310.581 181.954 335.424H144C132.954 335.424 124 326.469 124 315.424V148.302C115.971 146.389 110 139.171 110 130.557V89.2422C110 79.1673 118.167 71.0001 128.242 71H182.243Z" fill="black" fill-opacity="0.16"/>
<rect x="135" y="86" width="9.65788" height="48.8259" rx="4.82894" fill="black" fill-opacity="0.05"/>
<rect x="165.047" y="86" width="9.65788" height="48.8259" rx="4.82894" fill="black" fill-opacity="0.05"/>
<rect x="195.094" y="86" width="9.65788" height="48.8259" rx="4.82894" fill="black" fill-opacity="0.05"/>
<rect x="225.141" y="86" width="9.65788" height="48.8259" rx="4.82894" fill="black" fill-opacity="0.05"/>
<rect x="255.188" y="86" width="9.65788" height="48.8259" rx="4.82894" fill="black" fill-opacity="0.05"/>
</svg>
