<svg width="400" height="400" viewBox="0 0 400 400" fill="none" xmlns="http://www.w3.org/2000/svg">
<path d="M287.979 104.568C289.469 105.787 290.904 107.078 292.277 108.452C301.91 118.084 307.625 130.606 310.974 145.672C314.293 160.607 315.434 178.725 315.434 200.296C315.434 221.866 314.293 239.985 310.974 254.92C307.625 269.986 301.91 282.507 292.277 292.14C282.645 301.772 270.124 307.487 255.058 310.836C240.123 314.155 222.004 315.296 200.434 315.296C178.863 315.296 160.745 314.155 145.81 310.836C130.744 307.487 118.222 301.772 108.59 292.14C103.463 287.013 99.4461 281.067 96.3047 274.354C103.38 278.018 111.357 280.654 120.173 282.54C135.692 285.859 154.52 287 176.935 287C199.349 287 218.177 285.859 233.696 282.54C249.352 279.191 262.363 273.476 272.372 263.844C282.381 254.211 288.321 241.69 291.801 226.624C295.25 211.689 296.435 193.571 296.435 172C296.435 150.43 295.25 132.311 291.801 117.376C290.761 112.876 289.499 108.605 287.979 104.568Z" fill="black" fill-opacity="0.16"/>
</svg>
