<svg width="400" height="400" viewBox="0 0 400 400" fill="none" xmlns="http://www.w3.org/2000/svg">
<path d="M97.2539 276.3C103.288 277.7 109.66 278.868 116.36 279.836C139.348 283.155 167.235 284.296 200.435 284.296C233.634 284.296 261.521 283.155 284.508 279.836C291.208 278.868 297.581 277.701 303.614 276.301C300.623 282.221 296.904 287.514 292.278 292.14C282.646 301.772 270.125 307.487 255.059 310.836C240.124 314.155 222.005 315.296 200.435 315.296C178.864 315.296 160.746 314.155 145.811 310.836C130.745 307.487 118.223 301.772 108.591 292.14C103.965 287.514 100.245 282.22 97.2539 276.3Z" fill="black" fill-opacity="0.16"/>
</svg>
