<svg id="Capa_1" enable-background="new 0 0 512 512" height="512" viewBox="0 0 512 512" width="512" xmlns="http://www.w3.org/2000/svg"><path d="m324.683 93.659c0-51.727 41.932-93.659 93.658-93.659s93.659 41.932 93.659 93.659z" fill="#fce25c"/><path d="m512 93.659c0 51.726-41.932 93.659-93.659 93.659s-93.659-41.932-93.659-93.659z" fill="#fbd307"/><path d="m418.341 0c-5.501 0-10.889.479-16.13 1.388 44.039 7.645 77.528 46.045 77.528 92.27h32.261c0-51.726-41.932-93.658-93.659-93.658z" fill="#fbd307"/><path d="m479.74 93.659c0 46.225-33.489 84.625-77.528 92.27 5.241.91 10.629 1.388 16.13 1.388 51.726 0 93.659-41.932 93.659-93.659h-32.261z" fill="#e6b700"/><path d="m487.616 247.729c-32.512-32.512-85.224-32.512-117.736 0l-61.415 61.415 117.736 117.736 61.415-61.415c32.512-32.512 32.512-85.224 0-117.736z" fill="#fc8086"/><path d="m487.616 247.729c-3.903-3.903-8.104-7.325-12.52-10.292 21.739 32.364 18.317 76.608-10.292 105.216l-61.415 61.415 22.811 22.811 61.415-61.415c32.513-32.511 32.513-85.223.001-117.735z" fill="#fb636f"/><path d="m247.729 487.616c-32.512-32.512-32.512-85.224 0-117.736l60.736-60.736 117.736 117.736-60.737 60.737c-32.511 32.511-85.223 32.511-117.735-.001z" fill="#eff3f5"/><path d="m403.39 404.068-60.736 60.736c-28.609 28.609-72.852 32.031-105.216 10.292 2.966 4.416 6.388 8.616 10.292 12.52 32.512 32.512 85.224 32.512 117.736 0l60.737-60.737z" fill="#c9e2e7"/><path d="m24.384 24.384c-32.512 32.512-32.512 85.224 0 117.736l61.415 61.415 117.736-117.736-61.415-61.415c-32.512-32.512-85.224-32.512-117.736 0z" fill="#b9ea6a"/><path d="m24.384 24.384c-3.903 3.903-7.325 8.104-10.292 12.52 32.365-21.739 76.608-18.317 105.217 10.291l61.415 61.415 22.811-22.811-61.415-61.415c-32.512-32.512-85.224-32.512-117.736 0z" fill="#95d528"/><path d="m264.271 264.271c-32.512 32.512-85.224 32.512-117.736 0l-60.737-60.736 117.737-117.736 60.736 60.737c32.512 32.511 32.512 85.223 0 117.735z" fill="#eff3f5"/><path d="m180.724 108.61 60.737 60.736c28.609 28.609 32.031 72.852 10.292 105.216 4.416-2.966 8.616-6.388 12.52-10.292 32.512-32.512 32.512-85.224 0-117.736l-60.736-60.737z" fill="#c9e2e7"/><path d="m27.432 352.115c36.576-36.576 95.877-36.576 132.453 0s36.576 95.877 0 132.453z" fill="#97e4f9"/><path d="m159.885 484.568c-36.576 36.576-95.877 36.576-132.453 0s-36.576-95.877 0-132.453z" fill="#0acefa"/><path d="m159.885 352.115c-3.89-3.89-8.038-7.362-12.387-10.424 25.734 36.546 22.262 87.379-10.424 120.066l22.811 22.811c36.576-36.576 36.576-95.877 0-132.453z" fill="#0acefa"/><path d="m137.074 461.757c-32.686 32.686-83.519 36.158-120.066 10.424 3.062 4.349 6.534 8.498 10.424 12.387 36.576 36.576 95.877 36.576 132.453 0z" fill="#09a6ee"/><path d="m324.683 93.659c0 2.602.111 5.178.319 7.726h186.679c.208-2.548.319-5.124.319-7.726s-.111-5.178-.319-7.726h-186.679c-.208 2.548-.319 5.123-.319 7.726z" fill="#e6b700"/><path d="m27.432 352.115c-1.842 1.842-3.565 3.755-5.221 5.706l131.969 131.968c1.951-1.656 3.864-3.379 5.706-5.221s3.565-3.755 5.221-5.706l-131.969-131.968c-1.951 1.656-3.864 3.379-5.706 5.221z" fill="#09a6ee"/></svg>