<svg width="400" height="400" viewBox="0 0 400 400" fill="none" xmlns="http://www.w3.org/2000/svg">
<path d="M208.604 65C193.895 77.8612 193.919 112.542 215.02 128.077H188.985C188.353 137.257 189.695 146.678 193.727 154.358C182.43 167.859 174.887 192.627 175.153 220.541C175.162 221.393 175.177 222.248 175.2 223.105C175.233 224.332 175.28 225.566 175.343 226.804C175.445 228.807 175.586 230.823 175.77 232.851C175.826 233.478 175.887 234.107 175.952 234.736C176.115 236.32 176.304 237.911 176.519 239.506C176.538 239.65 176.557 239.794 176.577 239.938C178.728 255.574 183.396 271.648 191.201 286.93H191.198C200.228 304.617 213.457 321.249 231.85 334.919H134.924C117.844 334.919 104 321.075 104 303.995V286.861L104.001 286.859V202.39L104 202.389V185.255C104 168.639 117.101 155.087 133.538 154.362C133.669 154.361 133.801 154.358 133.933 154.358H142.8V154.331H144.4V128.058H139.944C129.48 128.058 121 119.577 121 109.113V83.9453C121 73.4811 129.48 65 139.944 65H208.604Z" fill="black" fill-opacity="0.26"/>
<rect x="135" y="75" width="9.65788" height="38.8259" rx="4.82894" fill="black" fill-opacity="0.05"/>
<rect x="165.047" y="75" width="9.65788" height="38.8259" rx="4.82894" fill="black" fill-opacity="0.05"/>
<rect x="195.094" y="75" width="9.65788" height="38.8259" rx="4.82894" fill="black" fill-opacity="0.05"/>
<rect x="225.141" y="75" width="9.65788" height="38.8259" rx="4.82894" fill="black" fill-opacity="0.05"/>
<rect x="255.188" y="75" width="9.65788" height="38.8259" rx="4.82894" fill="black" fill-opacity="0.05"/>
</svg>
