<svg width="24" height="24" viewBox="0 0 24 24" fill="none" xmlns="http://www.w3.org/2000/svg">
<mask id="mask0_48_2896" style="mask-type:alpha" maskUnits="userSpaceOnUse" x="0" y="0" width="24" height="24">
<rect width="24" height="24" fill="#D9D9D9"/>
</mask>
<g mask="url(#mask0_48_2896)">
<path d="M12.0071 20.6496C11.3959 20.6496 10.8733 20.433 10.4391 19.9999C10.0051 19.5667 9.78809 19.0459 9.78809 18.4376C9.78809 17.8254 10.0047 17.3014 10.4378 16.8656C10.871 16.4296 11.3918 16.2116 12.0001 16.2116C12.6161 16.2116 13.1388 16.4289 13.5681 16.8636C13.9974 17.2984 14.2121 17.8211 14.2121 18.4316C14.2121 19.0421 13.9974 19.5644 13.5681 19.9986C13.1388 20.4326 12.6184 20.6496 12.0071 20.6496ZM12.0071 14.2116C11.3959 14.2116 10.8733 13.995 10.4391 13.5619C10.0051 13.1287 9.78809 12.6079 9.78809 11.9996C9.78809 11.3836 10.0047 10.8609 10.4378 10.4316C10.871 10.0023 11.3918 9.78761 12.0001 9.78761C12.6161 9.78761 13.1388 10.0023 13.5681 10.4316C13.9974 10.8609 14.2121 11.3813 14.2121 11.9926C14.2121 12.6038 13.9974 13.1264 13.5681 13.5606C13.1388 13.9946 12.6184 14.2116 12.0071 14.2116ZM12.0071 7.78761C11.3959 7.78761 10.8733 7.56928 10.4391 7.13261C10.0051 6.69578 9.78809 6.17078 9.78809 5.55761C9.78809 4.94428 10.0047 4.42294 10.4378 3.99361C10.871 3.56428 11.3918 3.34961 12.0001 3.34961C12.6161 3.34961 13.1388 3.56428 13.5681 3.99361C13.9974 4.42294 14.2121 4.94428 14.2121 5.55761C14.2121 6.17078 13.9974 6.69578 13.5681 7.13261C13.1388 7.56928 12.6184 7.78761 12.0071 7.78761Z" fill="#1C1B1F"/>
</g>
</svg>
