<svg width="400" height="400" viewBox="0 0 400 400" fill="none" xmlns="http://www.w3.org/2000/svg">
<path d="M292.142 224.291L224.291 292.142C221.167 295.267 217.458 297.746 213.376 299.438C209.294 301.129 204.919 302 200.5 302C196.081 302 191.706 301.129 187.624 299.438C183.542 297.746 179.833 295.267 176.709 292.142L108.858 224.291C105.733 221.167 103.254 217.458 101.562 213.376C99.8706 209.294 99 204.919 99 200.5C99 196.081 99.8706 191.706 101.562 187.624C103.254 183.542 105.733 179.833 108.858 176.709L176.709 108.858C179.833 105.733 183.542 103.254 187.624 101.562C191.706 99.8706 196.081 99 200.5 99C204.919 99 209.294 99.8706 213.376 101.562C217.458 103.254 221.167 105.733 224.291 108.858L292.142 176.709C295.267 179.833 297.746 183.542 299.438 187.624C301.129 191.706 302 196.081 302 200.5C302 204.919 301.129 209.294 299.438 213.376C297.746 217.458 295.267 221.167 292.142 224.291Z" fill="#D9D9D9"/>
</svg>
