<svg width="1053" height="255" viewBox="0 0 1053 255" fill="none" xmlns="http://www.w3.org/2000/svg">
<path d="M200.797 228.647H42.315C29.991 228.647 20 218.656 20 206.332V47.8486C20 35.5246 29.991 25.5336 42.315 25.5336H200.798C213.122 25.5336 223.113 35.5246 223.113 47.8486V206.332C223.112 218.656 213.122 228.647 200.797 228.647Z" fill="#B9EA6A"/>
<path d="M200.674 25.5336H131.431C143.755 25.5336 153.746 35.5246 153.746 47.8486V206.332C153.746 218.656 143.755 228.647 131.431 228.647H200.674C212.998 228.647 222.989 218.656 222.989 206.332V47.8486C222.989 35.5246 212.998 25.5336 200.674 25.5336Z" fill="#95D528"/>
<path d="M373.62 21.125L271.732 95.151C267.805 98.004 266.162 103.061 267.662 107.676L306.58 227.453C308.08 232.069 312.381 235.194 317.235 235.194H443.176C448.029 235.194 452.331 232.069 453.831 227.453L492.749 107.676C494.249 103.06 492.606 98.003 488.679 95.151L386.791 21.125C382.864 18.272 377.547 18.272 373.62 21.125Z" fill="#97E4F9"/>
<path d="M488.554 95.151L386.666 21.125C382.739 18.272 377.423 18.272 373.496 21.125L345.46 41.495L419.312 95.151C423.239 98.004 424.882 103.061 423.382 107.677L384.463 227.454C382.963 232.07 378.662 235.195 373.808 235.195H443.051C447.905 235.195 452.206 232.07 453.706 227.454L492.624 107.677C494.124 103.061 492.481 98.004 488.554 95.151Z" fill="#0ACEFA"/>
<path d="M645.7 235.493C585.831 235.493 537.298 186.96 537.298 127.091C537.298 67.2216 585.831 18.6886 645.7 18.6886C705.569 18.6886 754.102 67.2216 754.102 127.091C754.102 186.959 705.568 235.493 645.7 235.493Z" fill="#FCE25C"/>
<path d="M645.576 18.6876C633.469 18.6876 621.826 20.6736 610.954 24.3356C653.845 38.7816 684.735 79.3276 684.735 127.09C684.735 174.852 653.845 215.398 610.954 229.844C621.826 233.506 633.469 235.492 645.575 235.492C705.444 235.492 753.977 186.959 753.977 127.09C753.978 67.2216 705.444 18.6876 645.576 18.6876Z" fill="#FBD307"/>
<path d="M1027.33 102.136L950.146 24.9539C936.365 11.1722 914.02 11.1722 900.239 24.9539L823.056 102.136C809.275 115.918 809.275 138.262 823.056 152.044L900.239 229.226C914.02 243.008 936.365 243.008 950.146 229.226L1027.33 152.044C1041.11 138.262 1041.11 115.918 1027.33 102.136Z" fill="#FC8086"/>
<path d="M900.214 24.9537C913.996 11.1723 936.34 11.1724 950.122 24.9537L1027.3 102.136C1041.09 115.918 1041.09 138.262 1027.3 152.044L950.122 229.226C936.34 243.008 913.996 243.008 900.214 229.226L891.161 220.172L959.291 152.044C973.072 138.262 973.072 115.918 959.291 102.136L891.161 34.0065L900.214 24.9537Z" fill="#FB636F"/>
</svg>
