<svg width="497" height="497" viewBox="0 0 497 497" fill="none" xmlns="http://www.w3.org/2000/svg">
<path d="M363.518 426.204H293.201L316.688 497H346.987C350.723 497 353.89 494.25 354.413 490.551L363.518 426.204Z" fill="#98D3F3"/>
<path d="M133.482 426.204L142.588 490.551C143.111 494.25 146.278 497 150.014 497H316.688C320.424 497 323.591 494.25 324.114 490.551L333.22 426.204H133.482Z" fill="#A5EFF2"/>
<path d="M310.324 270L329.569 452H333.814C348.758 452 361.423 441.001 363.518 426.204L385.623 270H310.324Z" fill="#A5EFF2"/>
<path d="M111.377 270L133.481 426.204C135.575 441.001 148.241 452 163.185 452H329.569L355.324 270H111.377Z" fill="#D7F9FA"/>
<path d="M383.5 255H353.5V285H383.5C391.784 285 398.5 278.284 398.5 270C398.5 261.716 391.784 255 383.5 255Z" fill="#98D3F3"/>
<path d="M368.5 270C368.5 261.716 361.784 255 353.5 255H113.5C105.216 255 98.5 261.716 98.5 270C98.5 278.284 105.216 285 113.5 285H353.5C361.784 285 368.5 278.284 368.5 270Z" fill="#A5EFF2"/>
<path d="M323.5 135H293.5V225H323.5C348.353 225 368.5 204.853 368.5 180C368.5 155.147 348.353 135 323.5 135Z" fill="#7EB91A"/>
<path d="M338.5 180C338.5 155.147 318.353 135 293.5 135H248.5L218.5 180L248.5 225H293.5C318.353 225 338.5 204.853 338.5 180Z" fill="#95D528"/>
<path d="M173.5 135C148.647 135 128.5 155.147 128.5 180C128.5 204.853 148.647 225 173.5 225H248.5V135H173.5Z" fill="#B9EA6A"/>
<path d="M248.5 0V105C277.495 105 301 81.495 301 52.5C301 23.505 277.495 0 248.5 0Z" fill="#FED96B"/>
<path d="M271 52.5C271 23.505 260.926 0 248.5 0C219.505 0 196 23.505 196 52.5C196 81.495 219.505 105 248.5 105C260.926 105 271 81.495 271 52.5Z" fill="#FEF575"/>
</svg>
