<svg width="400" height="400" viewBox="0 0 400 400" fill="none" xmlns="http://www.w3.org/2000/svg">
<path fill-rule="evenodd" clip-rule="evenodd" d="M145.376 89.4599C160.311 86.1408 178.429 85 200 85C221.571 85 239.689 86.1408 254.624 89.4599C269.69 92.8082 282.211 98.524 291.844 108.156C301.476 117.788 307.191 130.31 310.54 145.376C313.859 160.311 315 178.429 315 200C315 221.571 313.859 239.689 310.54 254.624C307.191 269.69 301.476 282.211 291.844 291.844C282.211 301.476 269.69 307.191 254.624 310.54C239.689 313.859 221.571 315 200 315C178.429 315 160.311 313.859 145.376 310.54C130.31 307.191 117.788 301.476 108.156 291.844C98.524 282.211 92.8082 269.69 89.4599 254.624C86.1408 239.689 85 221.571 85 200C85 178.429 86.1408 160.311 89.4599 145.376C92.8082 130.31 98.524 117.788 108.156 108.156C117.788 98.524 130.31 92.8082 145.376 89.4599Z" fill="#D9D9D9"/>
</svg>
